<mxfile host="app.diagrams.net" modified="2025-09-30T11:45:00.Z" agent="5.0" etag="stu901" version="28.2.5" type="device">
  <diagram name="UC-07 Support Dashboard und Überwachung" id="bpmn-uc07">
    <mxGraphModel dx="1426" dy="743" grid="1" gridSize="10" guides="1" tooltips="1" connect="1" arrows="1" fold="1" page="1" pageScale="1" pageWidth="1169" pageHeight="827" math="0" shadow="0">
      <root>
        <mxCell id="0" />
        <mxCell id="1" parent="0" />
        
        <mxCell id="pool1" value="Support Dashboard und Systemüberwachung" style="swimlane;html=1;childLayout=stackLayout;resizeParent=1;resizeParentMax=0;horizontal=1;startSize=20;horizontalStack=0;whiteSpace=wrap;" vertex="1" parent="1">
          <mxGeometry x="30" y="40" width="1100" height="500" as="geometry" />
        </mxCell>
        
        <mxCell id="lane1" value="DRV-Support" style="swimlane;html=1;startSize=20;horizontal=0;" vertex="1" parent="pool1">
          <mxGeometry y="20" width="1100" height="120" as="geometry" />
        </mxCell>
        
        <mxCell id="start1" value="Dashboard öffnen" style="ellipse;whiteSpace=wrap;html=1;aspect=fixed;fillColor=#d5e8d4;strokeColor=#82b366;" vertex="1" parent="lane1">
          <mxGeometry x="40" y="35" width="50" height="50" as="geometry" />
        </mxCell>
        
        <mxCell id="task1" value="Zuweisungen überwachen" style="rounded=1;whiteSpace=wrap;html=1;fillColor=#dae8fc;strokeColor=#6c8ebf;" vertex="1" parent="lane1">
          <mxGeometry x="120" y="40" width="80" height="40" as="geometry" />
        </mxCell>
        
        <mxCell id="task2" value="Dokumente prüfen" style="rounded=1;whiteSpace=wrap;html=1;fillColor=#dae8fc;strokeColor=#6c8ebf;" vertex="1" parent="lane1">
          <mxGeometry x="230" y="40" width="80" height="40" as="geometry" />
        </mxCell>
        
        <mxCell id="task3" value="System-Metriken" style="rounded=1;whiteSpace=wrap;html=1;fillColor=#dae8fc;strokeColor=#6c8ebf;" vertex="1" parent="lane1">
          <mxGeometry x="340" y="40" width="80" height="40" as="geometry" />
        </mxCell>
        
        <mxCell id="task4" value="Support-Tools" style="rounded=1;whiteSpace=wrap;html=1;fillColor=#dae8fc;strokeColor=#6c8ebf;" vertex="1" parent="lane1">
          <mxGeometry x="450" y="40" width="80" height="40" as="geometry" />
        </mxCell>
        
        <mxCell id="lane2" value="System" style="swimlane;html=1;startSize=20;horizontal=0;" vertex="1" parent="pool1">
          <mxGeometry y="140" width="1100" height="180" as="geometry" />
        </mxCell>
        
        <mxCell id="task5" value="Dashboard laden" style="rounded=1;whiteSpace=wrap;html=1;fillColor=#e1d5e7;strokeColor=#9673a6;" vertex="1" parent="lane2">
          <mxGeometry x="120" y="30" width="80" height="40" as="geometry" />
        </mxCell>
        
        <mxCell id="task6" value="Auftragsdaten aggregieren" style="rounded=1;whiteSpace=wrap;html=1;fillColor=#e1d5e7;strokeColor=#9673a6;" vertex="1" parent="lane2">
          <mxGeometry x="230" y="30" width="80" height="40" as="geometry" />
        </mxCell>
        
        <mxCell id="task7" value="Performance sammeln" style="rounded=1;whiteSpace=wrap;html=1;fillColor=#e1d5e7;strokeColor=#9673a6;" vertex="1" parent="lane2">
          <mxGeometry x="340" y="30" width="80" height="40" as="geometry" />
        </mxCell>
        
        <mxCell id="task8" value="Benutzer-Impersonation" style="rounded=1;whiteSpace=wrap;html=1;fillColor=#e1d5e7;strokeColor=#9673a6;" vertex="1" parent="lane2">
          <mxGeometry x="450" y="30" width="80" height="40" as="geometry" />
        </mxCell>
        
        <mxCell id="task9" value="Audit-Log" style="rounded=1;whiteSpace=wrap;html=1;fillColor=#e1d5e7;strokeColor=#9673a6;" vertex="1" parent="lane2">
          <mxGeometry x="450" y="90" width="80" height="40" as="geometry" />
        </mxCell>
        
        <mxCell id="lane3" value="Ergebnisse" style="swimlane;html=1;startSize=20;horizontal=0;" vertex="1" parent="pool1">
          <mxGeometry y="320" width="1100" height="180" as="geometry" />
        </mxCell>
        
        <mxCell id="end1" value="Dashboard aktiv" style="ellipse;whiteSpace=wrap;html=1;aspect=fixed;fillColor=#d5e8d4;strokeColor=#82b366;strokeWidth=3;" vertex="1" parent="lane3">
          <mxGeometry x="135" y="65" width="50" height="50" as="geometry" />
        </mxCell>
        
        <mxCell id="end2" value="System überwacht" style="ellipse;whiteSpace=wrap;html=1;aspect=fixed;fillColor=#d5e8d4;strokeColor=#82b366;strokeWidth=3;" vertex="1" parent="lane3">
          <mxGeometry x="355" y="65" width="50" height="50" as="geometry" />
        </mxCell>
        
        <mxCell id="end3" value="Support geleistet" style="ellipse;whiteSpace=wrap;html=1;aspect=fixed;fillColor=#d5e8d4;strokeColor=#82b366;strokeWidth=3;" vertex="1" parent="lane3">
          <mxGeometry x="465" y="65" width="50" height="50" as="geometry" />
        </mxCell>
        
        <mxCell id="flow1" value="" style="edgeStyle=orthogonalEdgeStyle;rounded=0;orthogonalLoop=1;jettySize=auto;html=1;" edge="1" parent="pool1" source="start1" target="task5">
          <mxGeometry relative="1" as="geometry">
            <Array as="points">
              <mxPoint x="65" y="120" />
              <mxPoint x="160" y="120" />
              <mxPoint x="160" y="170" />
            </Array>
          </mxGeometry>
        </mxCell>
        
        <mxCell id="flow2" value="" style="edgeStyle=orthogonalEdgeStyle;rounded=0;orthogonalLoop=1;jettySize=auto;html=1;" edge="1" parent="pool1" source="task5" target="end1">
          <mxGeometry relative="1" as="geometry">
            <Array as="points">
              <mxPoint x="160" y="410" />
            </Array>
          </mxGeometry>
        </mxCell>
        
        <mxCell id="flow3" value="" style="edgeStyle=orthogonalEdgeStyle;rounded=0;orthogonalLoop=1;jettySize=auto;html=1;" edge="1" parent="pool1" source="task1" target="task6">
          <mxGeometry relative="1" as="geometry">
            <Array as="points">
              <mxPoint x="160" y="160" />
              <mxPoint x="270" y="160" />
              <mxPoint x="270" y="170" />
            </Array>
          </mxGeometry>
        </mxCell>
        
        <mxCell id="flow4" value="" style="edgeStyle=orthogonalEdgeStyle;rounded=0;orthogonalLoop=1;jettySize=auto;html=1;" edge="1" parent="pool1" source="task2" target="task6">
          <mxGeometry relative="1" as="geometry">
            <Array as="points">
              <mxPoint x="270" y="160" />
              <mxPoint x="270" y="170" />
            </Array>
          </mxGeometry>
        </mxCell>
        
        <mxCell id="flow5" value="" style="edgeStyle=orthogonalEdgeStyle;rounded=0;orthogonalLoop=1;jettySize=auto;html=1;" edge="1" parent="pool1" source="task3" target="task7">
          <mxGeometry relative="1" as="geometry">
            <Array as="points">
              <mxPoint x="380" y="160" />
              <mxPoint x="380" y="170" />
            </Array>
          </mxGeometry>
        </mxCell>
        
        <mxCell id="flow6" value="" style="edgeStyle=orthogonalEdgeStyle;rounded=0;orthogonalLoop=1;jettySize=auto;html=1;" edge="1" parent="pool1" source="task4" target="task8">
          <mxGeometry relative="1" as="geometry">
            <Array as="points">
              <mxPoint x="490" y="160" />
              <mxPoint x="490" y="170" />
            </Array>
          </mxGeometry>
        </mxCell>
        
        <mxCell id="flow7" value="" style="edgeStyle=orthogonalEdgeStyle;rounded=0;orthogonalLoop=1;jettySize=auto;html=1;" edge="1" parent="pool1" source="task7" target="end2">
          <mxGeometry relative="1" as="geometry">
            <Array as="points">
              <mxPoint x="380" y="410" />
            </Array>
          </mxGeometry>
        </mxCell>
        
        <mxCell id="flow8" value="" style="edgeStyle=orthogonalEdgeStyle;rounded=0;orthogonalLoop=1;jettySize=auto;html=1;" edge="1" parent="pool1" source="task8" target="task9">
          <mxGeometry relative="1" as="geometry" />
        </mxCell>
        
        <mxCell id="flow9" value="" style="edgeStyle=orthogonalEdgeStyle;rounded=0;orthogonalLoop=1;jettySize=auto;html=1;" edge="1" parent="pool1" source="task9" target="end3">
          <mxGeometry relative="1" as="geometry">
            <Array as="points">
              <mxPoint x="490" y="410" />
            </Array>
          </mxGeometry>
        </mxCell>
        
      </root>
    </mxGraphModel>
  </diagram>
</mxfile>
